<svg xmlns="http://www.w3.org/2000/svg" viewBox="0 0 1200 360" preserveAspectRatio="xMidYMid slice">
  <defs>
    <linearGradient id="bg" x1="0" y1="0" x2="1" y2="1">
      <stop offset="0" stop-color="#000"/>
      <stop offset="0.6" stop-color="#101010"/>
      <stop offset="1" stop-color="#1a1a1a"/>
    </linearGradient>
    <pattern id="micro" width="210" height="74" patternUnits="userSpaceOnUse">
      <text x="0" y="50" font-family="'Arial Black', 'Helvetica Neue', Helvetica, Arial, sans-serif" font-size="20" font-weight="900" letter-spacing="5" fill="#fff" opacity="0.09">ANIMA</text>
      <circle cx="172" cy="24" r="3" fill="#777" opacity="0.3"/>
    </pattern>
    <clipPath id="active"><rect x="0" y="0" width="1200" height="274"/></clipPath>
  </defs>
  <rect width="1200" height="360" fill="url(#bg)"/>
  <rect width="1200" height="284" fill="url(#micro)"/>
  <g clip-path="url(#active)">
    <g stroke="#7a7a7a" stroke-width="1.4" opacity="0.4" stroke-linecap="round">
      <line x1="96" y1="120" x2="318" y2="180"/>
      <line x1="318" y1="180" x2="520" y2="92"/>
      <line x1="520" y1="92" x2="744" y2="150"/>
      <line x1="744" y1="150" x2="960" y2="86"/>
      <line x1="960" y1="86" x2="1118" y2="176"/>
      <line x1="318" y1="180" x2="612" y2="226"/>
    </g>
    <g fill="#9a9a9a" opacity="0.55">
      <circle cx="62" cy="200" r="2"/><circle cx="138" cy="64" r="1.6"/><circle cx="206" cy="148" r="2.6"/>
      <circle cx="262" cy="92" r="1.8"/><circle cx="348" cy="222" r="2.2"/><circle cx="404" cy="58" r="1.6"/>
      <circle cx="452" cy="166" r="2.8"/><circle cx="498" cy="232" r="1.8"/><circle cx="566" cy="120" r="2"/>
      <circle cx="640" cy="70" r="1.6"/><circle cx="688" cy="190" r="2.6"/><circle cx="722" cy="244" r="1.8"/>
      <circle cx="806" cy="116" r="2.2"/><circle cx="858" cy="64" r="1.6"/><circle cx="902" cy="204" r="2.8"/>
      <circle cx="972" cy="238" r="1.8"/><circle cx="1024" cy="128" r="2"/><circle cx="1086" cy="70" r="1.6"/>
      <circle cx="1142" cy="220" r="2.4"/><circle cx="178" cy="244" r="1.6"/><circle cx="556" cy="40" r="1.6"/>
      <circle cx="760" cy="44" r="1.6"/><circle cx="1110" cy="118" r="2"/><circle cx="40" cy="120" r="1.6"/>
    </g>
    <g fill="#d8d8d8" opacity="0.9">
      <circle cx="318" cy="180" r="9"/><circle cx="612" cy="226" r="7"/><circle cx="960" cy="86" r="8"/>
    </g>
  </g>
  <g>
    <circle cx="96" cy="120" r="18" fill="#fff"/><circle cx="96" cy="120" r="7" fill="#000"/>
    <circle cx="520" cy="92" r="26" fill="#fff"/><circle cx="520" cy="92" r="11" fill="#000"/>
    <circle cx="744" cy="150" r="21" fill="#fff"/><circle cx="744" cy="150" r="8" fill="#000"/>
    <circle cx="1118" cy="176" r="19" fill="#fff"/><circle cx="1118" cy="176" r="8" fill="#000"/>
  </g>
  <rect x="0" y="274" width="1200" height="86" fill="#111" opacity="0.96"/>
  <path d="M0 274 C148 280 276 286 420 280 C598 272 752 276 922 286 C1032 292 1124 288 1200 276 L1200 360 L0 360 Z" fill="#191919"/>
</svg>
